<svg width="21" height="28" viewBox="0 0 21 28" fill="none" xmlns="http://www.w3.org/2000/svg">
<path d="M4.74609 0.636719C5.24089 0.636719 5.50781 0.903646 5.54688 1.4375C5.58594 2.01042 5.59896 2.59635 5.58594 3.19531C5.57292 3.79427 5.57292 4.38672 5.58594 4.97266C5.59896 6.20964 5.60547 7.44661 5.60547 8.68359C5.60547 9.92057 5.60547 11.1576 5.60547 12.3945C5.60547 12.5508 5.67057 12.6289 5.80078 12.6289H5.89844C10.2995 11.418 13.3073 8.66406 14.9219 4.36719C15.1172 3.8724 15.2669 3.3776 15.3711 2.88281C15.4883 2.375 15.612 1.86068 15.7422 1.33984C15.8073 1.10547 15.8919 0.929688 15.9961 0.8125C16.1003 0.695312 16.2826 0.636719 16.543 0.636719H19.7852C20.0065 0.636719 20.1953 0.682292 20.3516 0.773438C20.5078 0.864583 20.5859 1.04036 20.5859 1.30078C20.5859 1.41797 20.5794 1.5026 20.5664 1.55469C20.1107 3.78125 19.3294 5.87109 18.2227 7.82422C17.1159 9.77734 15.6706 11.4701 13.8867 12.9023C13.5482 13.1888 13.1966 13.4557 12.832 13.7031C12.4805 13.9375 12.1159 14.1719 11.7383 14.4062C11.6471 14.4453 11.6016 14.5104 11.6016 14.6016C11.6016 14.6536 11.7904 14.9531 12.168 15.5C12.5586 16.0339 13.0599 16.724 13.6719 17.5703C14.2839 18.4167 14.9414 19.3216 15.6445 20.2852C16.3607 21.2357 17.0508 22.1602 17.7148 23.0586C18.3789 23.957 18.9518 24.7318 19.4336 25.3828C19.9154 26.0208 20.2279 26.444 20.3711 26.6523C20.4492 26.7565 20.5273 26.8802 20.6055 27.0234C20.6966 27.1667 20.7422 27.3099 20.7422 27.4531C20.7422 27.6875 20.612 27.8307 20.3516 27.8828C20.0911 27.9219 19.8828 27.9414 19.7266 27.9414H15.9375C15.6901 27.9414 15.4818 27.8372 15.3125 27.6289C14.9349 27.1732 14.5638 26.7044 14.1992 26.2227C13.8477 25.7279 13.4896 25.2396 13.125 24.7578C12.4479 23.8594 11.7708 22.9609 11.0938 22.0625C10.4297 21.1641 9.75911 20.2591 9.08203 19.3477C8.71745 18.8659 8.35938 18.3841 8.00781 17.9023C7.66927 17.4076 7.3112 16.9258 6.93359 16.457C6.86849 16.3919 6.81641 16.3594 6.77734 16.3594C6.64714 16.3594 6.49089 16.3789 6.30859 16.418C6.1263 16.444 5.96354 16.4701 5.82031 16.4961C5.67708 16.5221 5.60547 16.6068 5.60547 16.75C5.60547 17.9349 5.59896 19.1198 5.58594 20.3047C5.58594 21.4766 5.57943 22.6484 5.56641 23.8203C5.55339 24.3802 5.55339 24.9466 5.56641 25.5195C5.57943 26.0924 5.56641 26.6523 5.52734 27.1992C5.48828 27.7331 5.22135 28 4.72656 28H1.32812C0.794271 28 0.527344 27.7266 0.527344 27.1797C0.527344 26.4766 0.540365 25.7734 0.566406 25.0703C0.592448 24.3542 0.611979 23.6445 0.625 22.9414C0.664062 19.9466 0.683594 16.9714 0.683594 14.0156C0.683594 11.1641 0.664062 8.32552 0.625 5.5C0.611979 4.82292 0.592448 4.15234 0.566406 3.48828C0.553385 2.8112 0.546875 2.13411 0.546875 1.45703C0.546875 0.910156 0.813802 0.636719 1.34766 0.636719H4.74609Z" fill="#50D0D2"/>
</svg>
