<svg width="21" height="28" viewBox="0 0 21 28" fill="none" xmlns="http://www.w3.org/2000/svg">
<path d="M4.78656 0.847493C5.27754 0.847493 5.54242 1.11236 5.58118 1.64211C5.61994 2.21061 5.63286 2.79203 5.61994 3.38638C5.60702 3.98072 5.60702 4.56861 5.61994 5.15003C5.63286 6.37748 5.63932 7.60493 5.63932 8.83238C5.63932 10.0598 5.63932 11.2873 5.63932 12.5147C5.63932 12.6698 5.70392 12.7473 5.83313 12.7473H5.93003C10.2972 11.5457 13.2818 8.813 14.884 4.54923C15.0778 4.05825 15.2264 3.56727 15.3297 3.07629C15.446 2.57238 15.5688 2.06202 15.698 1.5452C15.7626 1.31263 15.8465 1.13821 15.9499 1.02192C16.0533 0.905636 16.2342 0.847493 16.4926 0.847493H19.7098C19.9294 0.847493 20.1168 0.892715 20.2718 0.983159C20.4269 1.0736 20.5044 1.24803 20.5044 1.50644C20.5044 1.62273 20.4979 1.70671 20.485 1.75839C20.0328 3.9678 19.2576 6.04155 18.1593 7.97963C17.0611 9.91771 15.6269 11.5974 13.8568 13.0186C13.5208 13.3029 13.172 13.5678 12.8102 13.8133C12.4614 14.0458 12.0996 14.2784 11.7249 14.511C11.6344 14.5497 11.5892 14.6143 11.5892 14.7048C11.5892 14.7565 11.7766 15.0536 12.1513 15.5963C12.5389 16.126 13.0363 16.8108 13.6436 17.6507C14.2509 18.4905 14.9033 19.3885 15.6011 20.3446C16.3117 21.2878 16.9965 22.2051 17.6554 23.0967C18.3144 23.9882 18.8829 24.7569 19.3609 25.403C19.839 26.0361 20.1491 26.456 20.2912 26.6627C20.3687 26.7661 20.4463 26.8888 20.5238 27.031C20.6142 27.1731 20.6594 27.3152 20.6594 27.4573C20.6594 27.6899 20.5302 27.832 20.2718 27.8837C20.0134 27.9225 19.8067 27.9419 19.6516 27.9419H15.8918C15.6463 27.9419 15.4395 27.8385 15.2716 27.6318C14.8969 27.1795 14.5286 26.7144 14.1669 26.2363C13.818 25.7454 13.4627 25.2608 13.1009 24.7828C12.4291 23.8913 11.7572 22.9998 11.0853 22.1082C10.4264 21.2167 9.76097 20.3187 9.0891 19.4143C8.72733 18.9362 8.37201 18.4582 8.02316 17.9801C7.68722 17.4891 7.33191 17.0111 6.95721 16.5459C6.89261 16.4813 6.84093 16.449 6.80217 16.449C6.67296 16.449 6.51792 16.4684 6.33703 16.5072C6.15614 16.533 5.99463 16.5589 5.85251 16.5847C5.71038 16.6105 5.63932 16.6945 5.63932 16.8367C5.63932 18.0124 5.63286 19.1882 5.61994 20.364C5.61994 21.5268 5.61348 22.6897 5.60056 23.8525C5.58764 24.4081 5.58764 24.9701 5.60056 25.5386C5.61348 26.1071 5.60056 26.6627 5.5618 27.2054C5.52303 27.7351 5.25816 28 4.76718 28H1.39492C0.865181 28 0.60031 27.7287 0.60031 27.186C0.60031 26.4883 0.613231 25.7906 0.639072 25.0929C0.664913 24.3822 0.684294 23.6781 0.697214 22.9804C0.735976 20.0086 0.755357 17.0563 0.755357 14.1233C0.755357 11.2937 0.735976 8.47707 0.697214 5.67331C0.684294 5.00145 0.664913 4.33604 0.639072 3.67709C0.626151 3.00522 0.619691 2.33336 0.619691 1.66149C0.619691 1.11882 0.884562 0.847493 1.4143 0.847493H4.78656Z" fill="#00B6DF"/>
</svg>
