<svg width="747" height="143" viewBox="0 0 747 143" fill="none" xmlns="http://www.w3.org/2000/svg">
<path d="M72.3725 143H17.7178L0.0413007 125.12V85.5007H29.9084V115.774H60.1819V0.775694H90.2521V125.12L72.3725 143ZM154.407 143H124.337V1.58841H210.687L228.364 19.2649V75.1387L204.795 98.9105H154.407V143ZM154.407 73.1069H191.385L198.497 65.9957V28.611H154.407V73.1069ZM339.581 143H256.482V1.58841H339.581L363.353 25.157V119.228L339.581 143ZM286.552 28.611V115.774H326.375L333.283 108.866V35.7222L326.375 28.611H286.552ZM486.633 143H393.984V1.58841H485.617V28.611H424.054V60.7131H472.613V83.8753H424.054V115.774H486.633V143ZM591.082 143H524.846L506.966 125.12V100.536H536.224V118.416H579.501V84.4849H525.252L507.576 66.8084V19.2649L525.252 1.58841H589.863L607.742 19.2649V45.4748H578.485V26.1729H536.833V59.9004H591.082L608.758 77.78V125.12L591.082 143ZM716.863 1.58841H746.933V125.12L729.054 143H655.097L637.217 125.12V1.58841H667.288V115.774H716.863V1.58841Z" fill="#BC002D"/>
</svg>
