<?xml version="1.0" encoding="UTF-8" standalone="no"?>
<!DOCTYPE svg PUBLIC "-//W3C//DTD SVG 1.1//EN" "http://www.w3.org/Graphics/SVG/1.1/DTD/svg11.dtd">
<svg width="100%" height="100%" viewBox="0 0 696 87" version="1.1" xmlns="http://www.w3.org/2000/svg" xmlns:xlink="http://www.w3.org/1999/xlink" xml:space="preserve" xmlns:serif="http://www.serif.com/" style="fill-rule:evenodd;clip-rule:evenodd;stroke-linejoin:round;stroke-miterlimit:2;">
    <g transform="matrix(1,0,0,1,-511.101,-488.292)">
        <g transform="matrix(10.3569,0,0,10.3569,-6543.02,-4668.32)">
            <g transform="matrix(12,0,0,12,680.141,506.29)">
                <path d="M0.28,-0L0.28,-0.268L0.319,-0.268L0.46,-0.096L0.46,-0L0.66,-0L0.66,-0.147L0.481,-0.355L0.656,-0.553L0.656,-0.7L0.456,-0.7L0.456,-0.604L0.32,-0.438L0.28,-0.438L0.28,-0.7L0.08,-0.7L0.08,-0L0.28,-0Z" style="fill:white;fill-rule:nonzero;"/>
            </g>
            <g transform="matrix(12,0,0,12,688.661,506.29)">
                <path d="M0.22,-0L0.22,-0.114L0.226,-0.138L0.444,-0.138L0.45,-0.114L0.45,-0L0.65,-0L0.65,-0.137L0.474,-0.7L0.196,-0.7L0.02,-0.136L0.02,-0L0.22,-0ZM0.335,-0.542L0.409,-0.298L0.261,-0.298L0.335,-0.542Z" style="fill:white;fill-rule:nonzero;"/>
            </g>
            <g transform="matrix(12,0,0,12,696.701,506.29)">
                <path d="M0.276,-0L0.276,-0.23C0.276,-0.271 0.272,-0.335 0.267,-0.382L0.399,-0.25L0.399,-0.122L0.587,-0.122L0.587,-0.25L0.719,-0.382C0.714,-0.335 0.71,-0.271 0.71,-0.23L0.71,-0L0.906,-0L0.906,-0.7L0.71,-0.7L0.71,-0.625L0.493,-0.408L0.276,-0.625L0.276,-0.7L0.08,-0.7L0.08,-0L0.276,-0Z" style="fill:white;fill-rule:nonzero;"/>
            </g>
            <g transform="matrix(12,0,0,12,708.533,506.29)">
                <rect x="0.08" y="-0.7" width="0.2" height="0.7" style="fill:white;fill-rule:nonzero;"/>
            </g>
            <g transform="matrix(12,0,0,12,712.853,506.29)">
                <path d="M0.482,-0L0.591,-0.109L0.591,-0.321L0.482,-0.43L0.245,-0.43L0.245,-0.54L0.389,-0.54L0.389,-0.474L0.583,-0.474L0.583,-0.591L0.474,-0.7L0.16,-0.7L0.051,-0.591L0.051,-0.379L0.16,-0.27L0.397,-0.27L0.397,-0.16L0.244,-0.16L0.244,-0.225L0.05,-0.225L0.05,-0.109L0.159,-0L0.482,-0Z" style="fill:white;fill-rule:nonzero;"/>
            </g>
            <g transform="matrix(12,0,0,12,720.545,506.29)">
                <path d="M0.22,-0L0.22,-0.114L0.226,-0.138L0.444,-0.138L0.45,-0.114L0.45,-0L0.65,-0L0.65,-0.137L0.474,-0.7L0.196,-0.7L0.02,-0.136L0.02,-0L0.22,-0ZM0.335,-0.542L0.409,-0.298L0.261,-0.298L0.335,-0.542Z" style="fill:white;fill-rule:nonzero;"/>
            </g>
            <g transform="matrix(12,0,0,12,728.585,506.29)">
                <path d="M0.276,-0L0.276,-0.23C0.276,-0.271 0.272,-0.335 0.267,-0.382L0.399,-0.25L0.399,-0.122L0.587,-0.122L0.587,-0.25L0.719,-0.382C0.714,-0.335 0.71,-0.271 0.71,-0.23L0.71,-0L0.906,-0L0.906,-0.7L0.71,-0.7L0.71,-0.625L0.493,-0.408L0.276,-0.625L0.276,-0.7L0.08,-0.7L0.08,-0L0.276,-0Z" style="fill:white;fill-rule:nonzero;"/>
            </g>
            <g transform="matrix(12,0,0,12,740.417,506.29)">
                <path d="M0.22,-0L0.22,-0.114L0.226,-0.138L0.444,-0.138L0.45,-0.114L0.45,-0L0.65,-0L0.65,-0.137L0.474,-0.7L0.196,-0.7L0.02,-0.136L0.02,-0L0.22,-0ZM0.335,-0.542L0.409,-0.298L0.261,-0.298L0.335,-0.542Z" style="fill:white;fill-rule:nonzero;"/>
            </g>
        </g>
    </g>
</svg>
