<svg width="808" height="164" viewBox="0 0 808 164" fill="none" xmlns="http://www.w3.org/2000/svg">
<path d="M0.354404 161.625L1.97983 106.767C9.29422 106.903 15.3895 106.835 20.2658 106.564C25.1421 106.293 28.7993 104.871 31.2374 102.298C33.6755 99.724 34.8946 95.0509 34.8946 88.2783V3.55327H100.724V101.688C100.724 113.608 99.031 123.428 95.6447 131.149C92.3938 138.87 87.7208 144.965 81.6254 149.435C75.6656 153.769 68.4866 156.885 60.0886 158.781C51.8261 160.677 42.6153 161.693 32.4565 161.829C22.433 162.1 11.7323 162.032 0.354404 161.625ZM168.031 160H104.031V3.55327H198.914C207.583 3.55327 215.507 5.24641 222.686 8.6327C230.001 11.8835 235.825 17.6402 240.159 25.9028C244.494 34.0299 246.661 45.3401 246.661 59.8335C246.661 74.0559 244.426 85.3661 239.956 93.7641C235.486 102.027 229.594 107.987 222.28 111.644C215.101 115.165 207.312 116.926 198.914 116.926H168.031V160ZM183.879 54.9572H164.374V65.9288H184.489C185.572 65.9288 186.724 65.5902 187.943 64.9129C189.297 64.2356 189.975 62.8134 189.975 60.6462C189.975 58.3435 189.23 56.8535 187.74 56.1763C186.25 55.3635 184.963 54.9572 183.879 54.9572ZM248.334 3.55327H310.507C326.354 3.55327 339.425 4.90778 349.72 7.61681C360.014 10.1904 368.141 13.9153 374.101 18.7916C380.196 23.6678 384.666 29.56 387.511 36.468C390.355 43.3761 392.116 51.1645 392.793 59.8335C393.606 68.3669 393.945 77.5776 393.809 87.4656C393.674 95.0509 393.335 102.433 392.793 109.612C392.252 116.791 390.694 123.428 388.12 129.523C385.682 135.619 381.551 140.969 375.727 145.574C369.902 150.18 361.707 153.769 351.142 156.343C340.577 158.781 326.896 160 310.1 160H248.334V3.55327ZM325.135 103.923V60.0366C325.135 59.4948 324.864 58.4789 324.323 56.989C323.916 55.3635 322.359 54.5508 319.65 54.5508C316.941 54.5508 315.315 55.3635 314.773 56.989C314.367 58.4789 314.164 59.4948 314.164 60.0366V103.923C314.164 104.329 314.367 105.345 314.773 106.971C315.315 108.596 316.941 109.409 319.65 109.409C322.359 109.409 323.916 108.596 324.323 106.971C324.864 105.345 325.135 104.329 325.135 103.923ZM459.813 98.6404V106.971H521.986V160H395.813V3.55327H518.329V49.2682H459.813V57.5985H512.843V98.6404H459.813ZM654.291 73.04C647.112 68.7055 639.459 65.5224 631.332 63.4907C623.205 61.3234 613.452 59.8335 602.074 59.0207C601.126 58.8853 600.178 58.8176 599.23 58.8176C598.417 58.6821 597.604 58.6144 596.792 58.6144C593.947 58.6144 592.525 59.7657 592.525 62.0684C592.525 63.4229 593.27 64.3711 594.76 64.9129C596.385 65.3192 598.553 65.6579 601.262 65.9288C606.544 66.606 612.098 67.4187 617.922 68.3669C623.747 69.1796 629.436 70.4664 634.989 72.2273C640.543 73.9882 645.554 76.5617 650.024 79.948C654.63 83.3343 658.219 87.8042 660.793 93.3578C663.502 98.9113 664.856 105.887 664.856 114.285C664.856 123.631 662.689 131.487 658.354 137.854C654.02 144.084 648.128 149.096 640.678 152.889C633.364 156.546 624.966 159.187 615.484 160.813C606.138 162.438 596.453 163.251 586.43 163.251C574.781 163.386 563.2 162.709 551.686 161.219C540.308 159.865 530.217 158.104 521.413 155.936L527.102 84.4179C530.217 86.7206 533.942 89.2265 538.277 91.9355C542.611 94.5091 548.503 96.8795 555.953 99.0467C563.403 101.214 573.223 102.907 585.414 104.126C586.091 104.262 586.701 104.329 587.242 104.329C587.92 104.329 588.529 104.329 589.071 104.329C590.561 104.329 591.645 104.126 592.322 103.72C593.134 103.313 593.541 102.433 593.541 101.079C593.541 99.5885 592.864 98.6404 591.509 98.234C590.29 97.8277 588.326 97.4213 585.617 97.015C578.303 96.2022 570.988 95.0509 563.674 93.5609C556.495 92.071 549.925 89.7683 543.966 86.6529C538.006 83.5375 533.197 79.2031 529.54 73.6495C526.018 68.096 524.257 60.8493 524.257 51.9095C524.257 39.1771 527.237 29.0859 533.197 21.6361C539.292 14.0508 547.487 8.6327 557.782 5.38186C568.076 1.99557 579.589 0.30243 592.322 0.30243C603.022 0.30243 614.197 1.31832 625.846 3.35009C637.495 5.24641 649.008 7.88772 660.386 11.274L654.291 73.04ZM664.758 3.55327H730.587V105.548C730.587 105.955 730.79 106.971 731.197 108.596C731.739 110.221 733.364 111.034 736.073 111.034C738.782 111.034 740.34 110.221 740.746 108.596C741.288 106.971 741.559 105.955 741.559 105.548V3.55327H807.388V108.393C807.388 115.843 806.169 122.886 803.731 129.523C801.293 136.025 797.297 141.849 791.744 146.997C786.19 152.008 778.673 156.004 769.191 158.984C759.845 161.829 748.196 163.251 734.244 163.251C721.918 163.251 711.353 161.761 702.549 158.781C693.744 155.801 686.565 151.737 681.012 146.59C675.458 141.443 671.327 135.619 668.618 129.117C666.045 122.615 664.758 115.843 664.758 108.799V3.55327Z" fill="white"/>
</svg>
