<svg width="384" height="776" viewBox="0 0 384 776" fill="none" xmlns="http://www.w3.org/2000/svg">
<path d="M379 358.83C379 337.922 371.943 323.547 357.83 315.707C352.043 312.368 345.877 310.688 339.331 310.666C330.802 310.694 321.733 313.423 312.123 318.856C311.679 319.117 311.233 319.374 310.786 319.627V398.034V633.254L379 594.05V358.83Z" fill="white"/>
<path d="M141.428 182.415L73.2138 221.618V770.465L141.428 731.262V496.042V417.635V338.956V182.415Z" fill="white"/>
<path d="M242.572 437.509L310.786 398.034V319.627L141.428 417.635V496.042L242.572 437.509Z" fill="white"/>
<path d="M379 45.2034L310.786 84.4067V319.627C311.233 319.364 311.679 319.107 312.123 318.856C319.786 314.347 327.018 308.547 333.82 301.457C337.227 297.906 340.526 294.031 343.717 289.832C354.171 276.242 362.535 261.606 368.807 245.925C375.602 230.243 379 215.607 379 202.017V45.2034Z" fill="white"/>
<path d="M73.2138 221.618L141.428 182.415M73.2138 221.618V770.465M73.2138 221.618L5 182.415M141.428 182.415L73.2138 143.212L5 182.415M141.428 182.415V338.956M141.428 417.635V338.956M141.428 417.635V496.042M141.428 417.635L310.786 319.627M310.786 319.627L242.572 280.424M310.786 319.627C311.233 319.374 311.679 319.117 312.123 318.856M310.786 319.627C311.233 319.364 311.679 319.107 312.123 318.856M310.786 319.627V398.034M310.786 319.627V84.4067M310.786 84.4067L379 45.2034M310.786 84.4067L242.572 45.2034M379 45.2034V202.017C379 215.607 375.602 230.243 368.807 245.925C362.535 261.606 354.171 276.242 343.717 289.832C340.526 294.031 337.227 297.906 333.82 301.457M379 45.2034L310.786 6L242.572 45.2034M310.786 633.254L379 594.05V358.83C379 337.922 371.943 323.547 357.83 315.707C352.043 312.368 345.877 310.688 339.331 310.666M310.786 633.254V398.034M310.786 633.254L242.572 594.05V437.509M310.786 398.034L242.572 437.509M141.428 496.042V731.262L73.2138 770.465M141.428 496.042L242.572 437.509M73.2138 770.465L5 731.262V182.415M242.572 280.424V45.2034M242.572 280.424L141.428 338.956M339.331 310.666C346.099 310.645 352.527 312.325 358.614 315.707L333.82 301.457M339.331 310.666C330.802 310.694 321.733 313.423 312.123 318.856M339.331 310.666C330.892 310.639 321.823 313.369 312.123 318.856M333.82 301.457C327.018 308.547 319.786 314.347 312.123 318.856" stroke="white" stroke-width="9.57405"/>
</svg>
