<svg width="999" height="999" viewBox="0 0 999 999" fill="none" xmlns="http://www.w3.org/2000/svg">
<rect width="998.141" height="998.141" rx="240" fill="black"/>
<path d="M686 469.83C686 448.922 678.943 434.547 664.83 426.707C659.043 423.368 652.877 421.688 646.331 421.666C637.802 421.694 628.733 424.423 619.123 429.856C618.679 430.117 618.233 430.374 617.786 430.627V509.034V744.254L686 705.05V469.83Z" fill="white"/>
<path d="M448.428 293.415L380.214 332.618V881.465L448.428 842.262V607.042V528.635V449.956V293.415Z" fill="white"/>
<path d="M549.572 548.509L617.786 509.034V430.627L448.428 528.635V607.042L549.572 548.509Z" fill="white"/>
<path d="M686 156.203L617.786 195.407V430.627C618.233 430.364 618.679 430.107 619.123 429.856C626.786 425.347 634.018 419.547 640.82 412.457C644.227 408.906 647.526 405.031 650.717 400.832C661.171 387.242 669.535 372.606 675.807 356.925C682.602 341.243 686 326.607 686 313.017V156.203Z" fill="white"/>
<path d="M380.214 332.618L448.428 293.415M380.214 332.618V881.465M380.214 332.618L312 293.415M448.428 293.415L380.214 254.212L312 293.415M448.428 293.415V449.956M448.428 528.635V449.956M448.428 528.635V607.042M448.428 528.635L617.786 430.627M617.786 430.627L549.572 391.424M617.786 430.627C618.233 430.374 618.679 430.117 619.123 429.856M617.786 430.627C618.233 430.364 618.679 430.107 619.123 429.856M617.786 430.627V509.034M617.786 430.627V195.407M617.786 195.407L686 156.203M617.786 195.407L549.572 156.203M686 156.203V313.017C686 326.607 682.602 341.243 675.807 356.925C669.535 372.606 661.171 387.242 650.717 400.832C647.526 405.031 644.227 408.906 640.82 412.457M686 156.203L617.786 117L549.572 156.203M617.786 744.254L686 705.05V469.83C686 448.922 678.943 434.547 664.83 426.707C659.043 423.368 652.877 421.688 646.331 421.666M617.786 744.254V509.034M617.786 744.254L549.572 705.05V548.509M617.786 509.034L549.572 548.509M448.428 607.042V842.262L380.214 881.465M448.428 607.042L549.572 548.509M380.214 881.465L312 842.262V293.415M549.572 391.424V156.203M549.572 391.424L448.428 449.956M646.331 421.666C653.099 421.645 659.527 423.325 665.614 426.707L640.82 412.457M646.331 421.666C637.802 421.694 628.733 424.423 619.123 429.856M646.331 421.666C637.892 421.639 628.823 424.369 619.123 429.856M640.82 412.457C634.018 419.547 626.786 425.347 619.123 429.856" stroke="white" stroke-width="9.57405"/>
</svg>
